<?xml version="1.0" encoding="UTF-8" standalone="no"?>
<!DOCTYPE svg PUBLIC "-//W3C//DTD SVG 1.1//EN" "http://www.w3.org/Graphics/SVG/1.1/DTD/svg11.dtd">
<svg width="100%" height="100%" viewBox="0 0 1080 1080" version="1.1" xmlns="http://www.w3.org/2000/svg" xmlns:xlink="http://www.w3.org/1999/xlink" xml:space="preserve" xmlns:serif="http://www.serif.com/" style="fill-rule:evenodd;clip-rule:evenodd;stroke-linecap:round;stroke-linejoin:round;stroke-miterlimit:1.5;">
    <g id="Nameless-Logo" serif:id="Nameless Logo" transform="matrix(0.579346,0,0,0.579346,-85.7046,-547.324)">
        <g transform="matrix(1,0,0,0.790192,180.92,461.565)">
            <path d="M501.095,2497.8L501.095,1498.31L1297.07,1498.31L1297.07,2498.98L1103.23,2498.98L1103.23,1696.44L700.535,1696.44L700.535,2497.18L501.095,2497.8Z" style="fill:rgb(72,137,243);"/>
        </g>
        <g transform="matrix(1,0,0,1,-601.044,578.119)">
            <path d="M1283.06,1013.68C1283.06,794.028 1461.39,615.697 1681.04,615.697C1900.7,615.697 2079.03,794.028 2079.03,1013.68L1283.06,1013.68ZM1511.45,782.316C1493.59,782.316 1479.08,796.822 1479.08,814.69C1479.08,832.557 1493.59,847.063 1511.45,847.063C1529.32,847.063 1543.83,832.557 1543.83,814.69C1543.83,796.822 1529.32,782.316 1511.45,782.316ZM1857.24,782.316C1839.37,782.316 1824.87,796.822 1824.87,814.69C1824.87,832.557 1839.37,847.063 1857.24,847.063C1875.11,847.063 1889.61,832.557 1889.61,814.69C1889.61,796.822 1875.11,782.316 1857.24,782.316Z" style="fill:rgb(72,137,244);"/>
        </g>
        <g transform="matrix(1,0,0,1,8.67935,-4.37016)">
            <path d="M805.119,1296.93L678.507,1170.32" style="fill:none;stroke:rgb(72,137,244);stroke-width:14.38px;"/>
        </g>
        <g transform="matrix(0.967713,0.0322873,0.0322873,0.967713,5.14102,-5.87422)">
            <path d="M1343.51,1296.93L1478.86,1161.57" style="fill:none;stroke:rgb(72,137,244);stroke-width:14.38px;"/>
        </g>
    </g>
</svg>
